<mxfile host="app.diagrams.net" modified="2023-04-04T19:42:31.445Z" agent="Mozilla/5.0 (Windows NT 10.0; Win64; x64; rv:109.0) Gecko/20100101 Firefox/111.0" etag="f5EXCKb3ha1808SyJ17N" version="21.1.4" type="device">
  <diagram name="Page-1" id="efa7a0a1-bf9b-a30e-e6df-94a7791c09e9">
    <mxGraphModel dx="1620" dy="414" grid="1" gridSize="10" guides="1" tooltips="1" connect="1" arrows="1" fold="1" page="1" pageScale="1" pageWidth="826" pageHeight="1169" background="none" math="0" shadow="0">
      <root>
        <mxCell id="0" />
        <mxCell id="1" parent="0" />
        <mxCell id="25" value="&lt;p style=&quot;margin: 0px; margin-top: 4px; text-align: center; text-decoration: underline;&quot;&gt;&lt;strong&gt;COMPUTADORA&lt;br&gt;&lt;/strong&gt;&lt;/p&gt;&lt;hr&gt;&lt;p style=&quot;margin: 0px; margin-left: 8px;&quot;&gt;PK |&amp;nbsp; nroMaquina&lt;/p&gt;&lt;p style=&quot;margin: 0px; margin-left: 8px;&quot;&gt;&amp;nbsp;&amp;nbsp;&amp;nbsp;&amp;nbsp;&amp;nbsp;&amp;nbsp;&amp;nbsp;&amp;nbsp; idModelo&amp;nbsp;&amp;nbsp;&amp;nbsp;&amp;nbsp;&amp;nbsp; &amp;nbsp; &amp;nbsp; | FK &lt;br&gt;&lt;/p&gt;" style="verticalAlign=top;align=left;overflow=fill;fontSize=12;fontFamily=Helvetica;html=1;strokeColor=#003366;shadow=1;fillColor=#D4E1F5;fontColor=#003366" parent="1" vertex="1">
          <mxGeometry x="180" y="225" width="160" height="80" as="geometry" />
        </mxCell>
        <mxCell id="yrySXefaIZyrYe9VN-Fa-114" value="&lt;p style=&quot;margin: 0px; margin-top: 4px; text-align: center; text-decoration: underline;&quot;&gt;&lt;strong&gt;CARGO&lt;/strong&gt;&lt;/p&gt;&lt;hr&gt;&lt;p style=&quot;margin: 0px; margin-left: 8px;&quot;&gt;PK | idCargo&lt;/p&gt;&lt;p style=&quot;margin: 0px; margin-left: 8px;&quot;&gt;&amp;nbsp;&amp;nbsp;&amp;nbsp;&amp;nbsp;&amp;nbsp;&amp;nbsp;&amp;nbsp; descripcion&lt;br&gt;&lt;/p&gt;" style="verticalAlign=top;align=left;overflow=fill;fontSize=12;fontFamily=Helvetica;html=1;strokeColor=#003366;shadow=1;fillColor=#D4E1F5;fontColor=#003366" vertex="1" parent="1">
          <mxGeometry x="620" y="80.82" width="160" height="80" as="geometry" />
        </mxCell>
        <mxCell id="yrySXefaIZyrYe9VN-Fa-115" value="&lt;p style=&quot;margin: 0px; margin-top: 4px; text-align: center; text-decoration: underline;&quot;&gt;&lt;strong&gt;EMPLEADO&lt;/strong&gt;&lt;/p&gt;&lt;hr&gt;&lt;p style=&quot;margin: 0px; margin-left: 8px;&quot;&gt;PK | nroLegajo&lt;br&gt;&lt;/p&gt;&lt;p style=&quot;margin: 0px; margin-left: 8px;&quot;&gt;&amp;nbsp;&amp;nbsp;&amp;nbsp;&amp;nbsp;&amp;nbsp;&amp;nbsp;&amp;nbsp; nombre&lt;/p&gt;&lt;p style=&quot;margin: 0px; margin-left: 8px;&quot;&gt;&amp;nbsp;&amp;nbsp;&amp;nbsp;&amp;nbsp;&amp;nbsp;&amp;nbsp;&amp;nbsp; idCargo&amp;nbsp;&amp;nbsp;&amp;nbsp;&amp;nbsp;&amp;nbsp;&amp;nbsp;&amp;nbsp;&amp;nbsp; | FK&lt;/p&gt;&lt;p style=&quot;margin: 0px; margin-left: 8px;&quot;&gt;&amp;nbsp;&amp;nbsp;&amp;nbsp;&amp;nbsp;&amp;nbsp;&amp;nbsp;&amp;nbsp; nroOficina&amp;nbsp;&amp;nbsp;&amp;nbsp;&amp;nbsp; | FK&lt;/p&gt;&lt;p style=&quot;margin: 0px; margin-left: 8px;&quot;&gt;&amp;nbsp;&amp;nbsp;&amp;nbsp;&amp;nbsp;&amp;nbsp;&amp;nbsp;&amp;nbsp; nroLegajo&amp;nbsp;&amp;nbsp;&amp;nbsp;&amp;nbsp;&amp;nbsp; | FK&lt;br&gt;&lt;/p&gt;&lt;p style=&quot;margin: 0px; margin-left: 8px;&quot;&gt;&lt;br&gt;&lt;/p&gt;" style="verticalAlign=top;align=left;overflow=fill;fontSize=12;fontFamily=Helvetica;html=1;strokeColor=#003366;shadow=1;fillColor=#D4E1F5;fontColor=#003366" vertex="1" parent="1">
          <mxGeometry x="333" y="61.64" width="157" height="118.36" as="geometry" />
        </mxCell>
        <mxCell id="yrySXefaIZyrYe9VN-Fa-116" value="" style="endArrow=none;html=1;rounded=0;entryX=0;entryY=0.5;entryDx=0;entryDy=0;exitX=1;exitY=0.5;exitDx=0;exitDy=0;" edge="1" parent="1" source="yrySXefaIZyrYe9VN-Fa-115" target="yrySXefaIZyrYe9VN-Fa-114">
          <mxGeometry width="50" height="50" relative="1" as="geometry">
            <mxPoint x="500" y="121" as="sourcePoint" />
            <mxPoint x="620" y="115" as="targetPoint" />
          </mxGeometry>
        </mxCell>
        <mxCell id="yrySXefaIZyrYe9VN-Fa-117" value="&lt;p style=&quot;margin: 0px; margin-top: 4px; text-align: center; text-decoration: underline;&quot;&gt;&lt;strong&gt;SOFTWAREXCOMPUTADORA&lt;/strong&gt;&lt;/p&gt;&lt;p style=&quot;margin: 0px; margin-top: 4px; text-align: center; text-decoration: underline;&quot;&gt;&lt;strong&gt;XLICENCIA&lt;br&gt;&lt;/strong&gt;&lt;/p&gt;&lt;hr&gt;&lt;div&gt;&amp;nbsp;PK&amp;nbsp; |&amp;nbsp; nroMaquina&amp;nbsp;&amp;nbsp;&amp;nbsp;&amp;nbsp;&amp;nbsp;&amp;nbsp; | FK&lt;br&gt;&lt;/div&gt;&lt;div&gt;&amp;nbsp;&amp;nbsp;&amp;nbsp;&amp;nbsp;&amp;nbsp;&amp;nbsp;&amp;nbsp; |&amp;nbsp; nroSoftware&amp;nbsp;&amp;nbsp;&amp;nbsp;&amp;nbsp;&amp;nbsp; | FK&lt;/div&gt;&lt;div&gt;&amp;nbsp;&amp;nbsp;&amp;nbsp;&amp;nbsp;&amp;nbsp;&amp;nbsp;&amp;nbsp; |&amp;nbsp; nroLicencia&amp;nbsp;&amp;nbsp;&amp;nbsp;&amp;nbsp;&amp;nbsp;&amp;nbsp; | FK&lt;br&gt;&lt;/div&gt;" style="verticalAlign=top;align=left;overflow=fill;fontSize=12;fontFamily=Helvetica;html=1;strokeColor=#003366;shadow=1;fillColor=#D4E1F5;fontColor=#003366" vertex="1" parent="1">
          <mxGeometry x="170" y="430" width="180" height="120" as="geometry" />
        </mxCell>
        <mxCell id="yrySXefaIZyrYe9VN-Fa-118" value="&lt;p style=&quot;margin: 0px; margin-top: 4px; text-align: center; text-decoration: underline;&quot;&gt;&lt;strong&gt;MODELO&lt;br&gt;&lt;/strong&gt;&lt;/p&gt;&lt;hr&gt;&lt;p style=&quot;margin: 0px; margin-left: 8px;&quot;&gt;PK |&amp;nbsp; idModelo&lt;/p&gt;&lt;p style=&quot;margin: 0px; margin-left: 8px;&quot;&gt;&amp;nbsp;&amp;nbsp;&amp;nbsp;&amp;nbsp;&amp;nbsp;&amp;nbsp;&amp;nbsp;&amp;nbsp; descripcion&lt;/p&gt;&lt;p style=&quot;margin: 0px; margin-left: 8px;&quot;&gt;&amp;nbsp;&amp;nbsp;&amp;nbsp;&amp;nbsp;&amp;nbsp;&amp;nbsp;&amp;nbsp;&amp;nbsp; idMarca&amp;nbsp;&amp;nbsp;&amp;nbsp;&amp;nbsp;&amp;nbsp;&amp;nbsp;&amp;nbsp;&amp;nbsp; &lt;span style=&quot;white-space: pre;&quot;&gt;	&lt;/span&gt;| FK&lt;br&gt;&lt;/p&gt;" style="verticalAlign=top;align=left;overflow=fill;fontSize=12;fontFamily=Helvetica;html=1;strokeColor=#003366;shadow=1;fillColor=#D4E1F5;fontColor=#003366" vertex="1" parent="1">
          <mxGeometry x="480" y="220" width="150" height="90" as="geometry" />
        </mxCell>
        <mxCell id="yrySXefaIZyrYe9VN-Fa-119" value="&lt;p style=&quot;margin: 0px; margin-top: 4px; text-align: center; text-decoration: underline;&quot;&gt;&lt;strong&gt;MARCA&lt;br&gt;&lt;/strong&gt;&lt;/p&gt;&lt;hr&gt;&lt;p style=&quot;margin: 0px; margin-left: 8px;&quot;&gt;PK |&amp;nbsp; idMarca&lt;/p&gt;&lt;p style=&quot;margin: 0px; margin-left: 8px;&quot;&gt;&amp;nbsp;&amp;nbsp;&amp;nbsp;&amp;nbsp;&amp;nbsp;&amp;nbsp;&amp;nbsp;&amp;nbsp; descripcion&lt;/p&gt;" style="verticalAlign=top;align=left;overflow=fill;fontSize=12;fontFamily=Helvetica;html=1;strokeColor=#003366;shadow=1;fillColor=#D4E1F5;fontColor=#003366" vertex="1" parent="1">
          <mxGeometry x="490" y="400" width="130" height="70" as="geometry" />
        </mxCell>
        <mxCell id="yrySXefaIZyrYe9VN-Fa-120" value="" style="endArrow=none;html=1;rounded=0;entryX=0.5;entryY=0;entryDx=0;entryDy=0;exitX=0.5;exitY=1;exitDx=0;exitDy=0;" edge="1" parent="1" source="yrySXefaIZyrYe9VN-Fa-118" target="yrySXefaIZyrYe9VN-Fa-119">
          <mxGeometry width="50" height="50" relative="1" as="geometry">
            <mxPoint x="460" y="310" as="sourcePoint" />
            <mxPoint x="510" y="260" as="targetPoint" />
          </mxGeometry>
        </mxCell>
        <mxCell id="yrySXefaIZyrYe9VN-Fa-121" value="&lt;p style=&quot;margin: 0px; margin-top: 4px; text-align: center; text-decoration: underline;&quot;&gt;&lt;strong&gt;SOFTWARE&lt;br&gt;&lt;/strong&gt;&lt;/p&gt;&lt;hr&gt;&lt;p style=&quot;margin: 0px; margin-left: 8px;&quot;&gt;PK |&amp;nbsp; nroSoftware&lt;/p&gt;&lt;p style=&quot;margin: 0px; margin-left: 8px;&quot;&gt;&amp;nbsp;&amp;nbsp;&amp;nbsp;&amp;nbsp;&amp;nbsp;&amp;nbsp;&amp;nbsp;&amp;nbsp; nombre&lt;/p&gt;&lt;p style=&quot;margin: 0px; margin-left: 8px;&quot;&gt;&amp;nbsp;&amp;nbsp;&amp;nbsp;&amp;nbsp;&amp;nbsp;&amp;nbsp;&amp;nbsp;&amp;nbsp; descripcion&lt;/p&gt;&lt;p style=&quot;margin: 0px; margin-left: 8px;&quot;&gt;&amp;nbsp;&amp;nbsp;&amp;nbsp;&amp;nbsp;&amp;nbsp;&amp;nbsp;&amp;nbsp; &lt;br&gt;&lt;/p&gt;" style="verticalAlign=top;align=left;overflow=fill;fontSize=12;fontFamily=Helvetica;html=1;strokeColor=#003366;shadow=1;fillColor=#D4E1F5;fontColor=#003366" vertex="1" parent="1">
          <mxGeometry x="180" y="680" width="160" height="100" as="geometry" />
        </mxCell>
        <mxCell id="yrySXefaIZyrYe9VN-Fa-122" value="" style="endArrow=none;html=1;rounded=0;exitX=1;exitY=0.5;exitDx=0;exitDy=0;" edge="1" parent="1" source="25" target="yrySXefaIZyrYe9VN-Fa-118">
          <mxGeometry width="50" height="50" relative="1" as="geometry">
            <mxPoint x="460" y="230" as="sourcePoint" />
            <mxPoint x="510" y="180" as="targetPoint" />
          </mxGeometry>
        </mxCell>
        <mxCell id="yrySXefaIZyrYe9VN-Fa-124" value="&lt;p style=&quot;margin: 0px; margin-top: 4px; text-align: center; text-decoration: underline;&quot;&gt;&lt;strong&gt;LICENCIA&lt;br&gt;&lt;/strong&gt;&lt;/p&gt;&lt;hr&gt;&lt;p style=&quot;margin: 0px; margin-left: 8px;&quot;&gt;PK |&amp;nbsp; nroLicencia&lt;br&gt;&lt;/p&gt;&lt;p style=&quot;margin: 0px; margin-left: 8px;&quot;&gt;&amp;nbsp;&amp;nbsp;&amp;nbsp;&amp;nbsp;&amp;nbsp;&amp;nbsp;&amp;nbsp;&amp;nbsp; descripcion&lt;/p&gt;&lt;p style=&quot;margin: 0px; margin-left: 8px;&quot;&gt;&amp;nbsp;&amp;nbsp;&amp;nbsp;&amp;nbsp;&amp;nbsp;&amp;nbsp;&amp;nbsp; &lt;br&gt;&lt;/p&gt;" style="verticalAlign=top;align=left;overflow=fill;fontSize=12;fontFamily=Helvetica;html=1;strokeColor=#003366;shadow=1;fillColor=#D4E1F5;fontColor=#003366" vertex="1" parent="1">
          <mxGeometry x="480" y="695" width="160" height="85" as="geometry" />
        </mxCell>
        <mxCell id="yrySXefaIZyrYe9VN-Fa-125" value="" style="endArrow=none;html=1;rounded=0;entryX=0.5;entryY=0;entryDx=0;entryDy=0;exitX=0.5;exitY=1;exitDx=0;exitDy=0;" edge="1" parent="1" source="25" target="yrySXefaIZyrYe9VN-Fa-117">
          <mxGeometry width="50" height="50" relative="1" as="geometry">
            <mxPoint x="70" y="240" as="sourcePoint" />
            <mxPoint x="120" y="190" as="targetPoint" />
          </mxGeometry>
        </mxCell>
        <mxCell id="yrySXefaIZyrYe9VN-Fa-126" value="" style="endArrow=none;html=1;rounded=0;entryX=0.5;entryY=0;entryDx=0;entryDy=0;exitX=0.5;exitY=1;exitDx=0;exitDy=0;" edge="1" parent="1" source="yrySXefaIZyrYe9VN-Fa-117" target="yrySXefaIZyrYe9VN-Fa-121">
          <mxGeometry width="50" height="50" relative="1" as="geometry">
            <mxPoint x="100" y="650" as="sourcePoint" />
            <mxPoint x="150" y="600" as="targetPoint" />
          </mxGeometry>
        </mxCell>
        <mxCell id="yrySXefaIZyrYe9VN-Fa-127" value="" style="endArrow=none;html=1;rounded=0;entryX=0;entryY=0.5;entryDx=0;entryDy=0;exitX=1.006;exitY=0.6;exitDx=0;exitDy=0;exitPerimeter=0;" edge="1" parent="1" source="yrySXefaIZyrYe9VN-Fa-121" target="yrySXefaIZyrYe9VN-Fa-124">
          <mxGeometry width="50" height="50" relative="1" as="geometry">
            <mxPoint x="420" y="640" as="sourcePoint" />
            <mxPoint x="470" y="590" as="targetPoint" />
          </mxGeometry>
        </mxCell>
        <mxCell id="yrySXefaIZyrYe9VN-Fa-129" value="&lt;p style=&quot;margin: 0px; margin-top: 4px; text-align: center; text-decoration: underline;&quot;&gt;&lt;strong&gt;COMPUTADORA&lt;/strong&gt;&lt;/p&gt;&lt;p style=&quot;margin: 0px; margin-top: 4px; text-align: center; text-decoration: underline;&quot;&gt;&lt;strong&gt;XEMPLEADO&lt;br&gt;&lt;/strong&gt;&lt;/p&gt;&lt;hr&gt;&lt;p style=&quot;margin: 0px; margin-left: 8px;&quot;&gt;PK |&amp;nbsp; nroMaquina&amp;nbsp; &amp;nbsp; | FK&lt;br&gt;&lt;/p&gt;&lt;p style=&quot;margin: 0px; margin-left: 8px;&quot;&gt;&amp;nbsp;&amp;nbsp;&amp;nbsp;&amp;nbsp;&amp;nbsp; |&amp;nbsp; nroLegajo&amp;nbsp;&amp;nbsp;&amp;nbsp;&amp;nbsp;&amp;nbsp;&amp;nbsp; | FK &lt;br&gt;&lt;/p&gt;" style="verticalAlign=top;align=left;overflow=fill;fontSize=12;fontFamily=Helvetica;html=1;strokeColor=#003366;shadow=1;fillColor=#D4E1F5;fontColor=#003366" vertex="1" parent="1">
          <mxGeometry x="-50" y="61.64" width="180" height="104.18" as="geometry" />
        </mxCell>
        <mxCell id="yrySXefaIZyrYe9VN-Fa-130" value="" style="endArrow=none;html=1;rounded=0;exitX=1.006;exitY=0.406;exitDx=0;exitDy=0;exitPerimeter=0;" edge="1" parent="1" source="yrySXefaIZyrYe9VN-Fa-129">
          <mxGeometry width="50" height="50" relative="1" as="geometry">
            <mxPoint x="200" y="240" as="sourcePoint" />
            <mxPoint x="330" y="104" as="targetPoint" />
          </mxGeometry>
        </mxCell>
        <mxCell id="yrySXefaIZyrYe9VN-Fa-131" value="" style="endArrow=none;html=1;rounded=0;entryX=0;entryY=0.5;entryDx=0;entryDy=0;exitX=0.5;exitY=1;exitDx=0;exitDy=0;" edge="1" parent="1" source="yrySXefaIZyrYe9VN-Fa-129" target="25">
          <mxGeometry width="50" height="50" relative="1" as="geometry">
            <mxPoint x="30" y="290" as="sourcePoint" />
            <mxPoint x="80" y="240" as="targetPoint" />
            <Array as="points">
              <mxPoint x="40" y="265" />
            </Array>
          </mxGeometry>
        </mxCell>
        <mxCell id="yrySXefaIZyrYe9VN-Fa-132" value="&lt;p style=&quot;margin: 0px; margin-top: 4px; text-align: center; text-decoration: underline;&quot;&gt;&lt;strong&gt;OFICINA&lt;br&gt;&lt;/strong&gt;&lt;/p&gt;&lt;hr&gt;&lt;p style=&quot;margin: 0px; margin-left: 8px;&quot;&gt;PK |&amp;nbsp; nroOficina&lt;/p&gt;&lt;p style=&quot;margin: 0px; margin-left: 8px;&quot;&gt;&amp;nbsp;&amp;nbsp;&amp;nbsp;&amp;nbsp;&amp;nbsp;&amp;nbsp;&amp;nbsp;&amp;nbsp; nombre&lt;/p&gt;&lt;p style=&quot;margin: 0px; margin-left: 8px;&quot;&gt;&lt;span style=&quot;white-space: pre;&quot;&gt;	&lt;/span&gt; ubicacion&lt;br&gt;&lt;/p&gt;" style="verticalAlign=top;align=left;overflow=fill;fontSize=12;fontFamily=Helvetica;html=1;strokeColor=#003366;shadow=1;fillColor=#D4E1F5;fontColor=#003366" vertex="1" parent="1">
          <mxGeometry x="-170" y="305" width="160" height="80" as="geometry" />
        </mxCell>
        <mxCell id="yrySXefaIZyrYe9VN-Fa-133" value="" style="endArrow=none;html=1;rounded=0;entryX=0.5;entryY=0;entryDx=0;entryDy=0;exitX=0.5;exitY=0;exitDx=0;exitDy=0;" edge="1" parent="1" source="yrySXefaIZyrYe9VN-Fa-132" target="yrySXefaIZyrYe9VN-Fa-115">
          <mxGeometry width="50" height="50" relative="1" as="geometry">
            <mxPoint x="-20" y="70" as="sourcePoint" />
            <mxPoint x="30" y="20" as="targetPoint" />
            <Array as="points">
              <mxPoint x="-90" y="30" />
              <mxPoint x="412" y="30" />
            </Array>
          </mxGeometry>
        </mxCell>
        <mxCell id="yrySXefaIZyrYe9VN-Fa-134" value="&lt;p style=&quot;margin: 0px; margin-top: 4px; text-align: center; text-decoration: underline;&quot;&gt;&lt;strong&gt;COMPUTADORA&lt;/strong&gt;&lt;/p&gt;&lt;p style=&quot;margin: 0px; margin-top: 4px; text-align: center; text-decoration: underline;&quot;&gt;&lt;strong&gt;XOFICINA&lt;br&gt;&lt;/strong&gt;&lt;/p&gt;&lt;hr&gt;&lt;p style=&quot;margin: 0px; margin-left: 8px;&quot;&gt;PK |&amp;nbsp; nroOficina&amp;nbsp;&amp;nbsp;&amp;nbsp;&amp;nbsp;&amp;nbsp;&amp;nbsp;&amp;nbsp;&amp;nbsp;&amp;nbsp; | FK&lt;br&gt;&lt;/p&gt;&lt;p style=&quot;margin: 0px; margin-left: 8px;&quot;&gt;&amp;nbsp;&amp;nbsp;&amp;nbsp;&amp;nbsp;&amp;nbsp; |&amp;nbsp; nroMaquina&amp;nbsp;&amp;nbsp;&amp;nbsp; &amp;nbsp;&amp;nbsp; | FK&lt;br&gt;&lt;/p&gt;&lt;p style=&quot;margin: 0px; margin-left: 8px;&quot;&gt;&lt;span style=&quot;white-space: pre;&quot;&gt;	&lt;/span&gt; &lt;br&gt;&lt;/p&gt;" style="verticalAlign=top;align=left;overflow=fill;fontSize=12;fontFamily=Helvetica;html=1;strokeColor=#003366;shadow=1;fillColor=#D4E1F5;fontColor=#003366" vertex="1" parent="1">
          <mxGeometry x="-130" y="470" width="160" height="110" as="geometry" />
        </mxCell>
        <mxCell id="yrySXefaIZyrYe9VN-Fa-135" value="" style="endArrow=none;html=1;rounded=0;entryX=0;entryY=0.75;entryDx=0;entryDy=0;exitX=1;exitY=0.25;exitDx=0;exitDy=0;" edge="1" parent="1" source="yrySXefaIZyrYe9VN-Fa-134" target="25">
          <mxGeometry width="50" height="50" relative="1" as="geometry">
            <mxPoint x="40" y="390" as="sourcePoint" />
            <mxPoint x="90" y="340" as="targetPoint" />
            <Array as="points">
              <mxPoint x="80" y="498" />
              <mxPoint x="80" y="285" />
            </Array>
          </mxGeometry>
        </mxCell>
        <mxCell id="yrySXefaIZyrYe9VN-Fa-136" value="" style="endArrow=none;html=1;rounded=0;entryX=0.25;entryY=0;entryDx=0;entryDy=0;exitX=0.5;exitY=1;exitDx=0;exitDy=0;" edge="1" parent="1" source="yrySXefaIZyrYe9VN-Fa-132" target="yrySXefaIZyrYe9VN-Fa-134">
          <mxGeometry width="50" height="50" relative="1" as="geometry">
            <mxPoint x="-190" y="460" as="sourcePoint" />
            <mxPoint x="-140" y="410" as="targetPoint" />
          </mxGeometry>
        </mxCell>
        <mxCell id="yrySXefaIZyrYe9VN-Fa-137" value="&lt;h1&gt;Ejercicio N°6: Registros de computadoras y software &lt;br&gt;&lt;/h1&gt;&lt;p&gt;&lt;span id=&quot;page45R_mcid14&quot; class=&quot;markedContent&quot;&gt;&lt;span dir=&quot;ltr&quot; role=&quot;presentation&quot; style=&quot;left: calc(var(--scale-factor)*56.64px); top: calc(var(--scale-factor)*422.83px); font-size: calc(var(--scale-factor)*11.04px); font-family: sans-serif; transform: scaleX(0.926531);&quot;&gt;Una empresa comenzó a implementar un sistema automatizado del registro de sus bienes, actualmente le&lt;/span&gt;&lt;br role=&quot;presentation&quot;&gt;&lt;span dir=&quot;ltr&quot; role=&quot;presentation&quot; style=&quot;left: calc(var(--scale-factor)*56.64px); top: calc(var(--scale-factor)*435.55px); font-size: calc(var(--scale-factor)*11.04px); font-family: sans-serif; transform: scaleX(0.883618);&quot;&gt;interesan sólo las computadoras y el software que posee.&lt;/span&gt;&lt;/span&gt;&lt;span id=&quot;page45R_mcid15&quot; class=&quot;markedContent&quot;&gt;&lt;br role=&quot;presentation&quot;&gt;&lt;span dir=&quot;ltr&quot; role=&quot;presentation&quot; style=&quot;left: calc(var(--scale-factor)*56.64px); top: calc(var(--scale-factor)*454.15px); font-size: calc(var(--scale-factor)*11.04px); font-family: sans-serif; transform: scaleX(0.898954);&quot;&gt;Cada oficina posee los siguie&lt;/span&gt;&lt;span dir=&quot;ltr&quot; role=&quot;presentation&quot; style=&quot;left: calc(var(--scale-factor)*185.90px); top: calc(var(--scale-factor)*454.15px); font-size: calc(var(--scale-factor)*11.04px); font-family: sans-serif; transform: scaleX(0.91028);&quot;&gt;ntes datos: número de oficina, jefes (director y subdirector), nombre, ubicación,&lt;/span&gt;&lt;br role=&quot;presentation&quot;&gt;&lt;span dir=&quot;ltr&quot; role=&quot;presentation&quot; style=&quot;left: calc(var(--scale-factor)*56.64px); top: calc(var(--scale-factor)*466.89px); font-size: calc(var(--scale-factor)*11.04px); font-family: sans-serif; transform: scaleX(0.884123);&quot;&gt;empleados y computadoras.&lt;/span&gt;&lt;/span&gt;&lt;span id=&quot;page45R_mcid16&quot; class=&quot;markedContent&quot;&gt;&lt;br role=&quot;presentation&quot;&gt;&lt;span dir=&quot;ltr&quot; role=&quot;presentation&quot; style=&quot;left: calc(var(--scale-factor)*56.64px); top: calc(var(--scale-factor)*485.49px); font-size: calc(var(--scale-factor)*11.04px); font-family: sans-serif; transform: scaleX(0.888703);&quot;&gt;Para cada computadora se registra: número de máquina, modelo, marca y software instalado.&lt;/span&gt;&lt;/span&gt;&lt;span id=&quot;page45R_mcid17&quot; class=&quot;markedContent&quot;&gt;&lt;br role=&quot;presentation&quot;&gt;&lt;span dir=&quot;ltr&quot; role=&quot;presentation&quot; style=&quot;left: calc(var(--scale-factor)*56.64px); top: calc(var(--scale-factor)*504.09px); font-size: calc(var(--scale-factor)*11.04px); font-family: sans-serif; transform: scaleX(0.902069);&quot;&gt;Del software se registra: número de software, nombre, desc&lt;/span&gt;&lt;span dir=&quot;ltr&quot; role=&quot;presentation&quot; style=&quot;left: calc(var(--scale-factor)*320.81px); top: calc(var(--scale-factor)*504.09px); font-size: calc(var(--scale-factor)*11.04px); font-family: sans-serif; transform: scaleX(0.902295);&quot;&gt;ripción y los números de licencia que posee cada&lt;/span&gt;&lt;br role=&quot;presentation&quot;&gt;&lt;span dir=&quot;ltr&quot; role=&quot;presentation&quot; style=&quot;left: calc(var(--scale-factor)*56.64px); top: calc(var(--scale-factor)*516.81px); font-size: calc(var(--scale-factor)*11.04px); font-family: sans-serif; transform: scaleX(0.892359);&quot;&gt;computadora.&lt;/span&gt;&lt;/span&gt;&lt;span id=&quot;page45R_mcid18&quot; class=&quot;markedContent&quot;&gt;&lt;br role=&quot;presentation&quot;&gt;&lt;span dir=&quot;ltr&quot; role=&quot;presentation&quot; style=&quot;left: calc(var(--scale-factor)*56.64px); top: calc(var(--scale-factor)*535.41px); font-size: calc(var(--scale-factor)*11.04px); font-family: sans-serif; transform: scaleX(0.89171);&quot;&gt;Los empleados poseen: número de legajo, nombre y cargo (un solo cargo por empleado).&lt;/span&gt;&lt;/span&gt;&lt;span id=&quot;page45R_mcid19&quot; class=&quot;markedContent&quot;&gt;&lt;br role=&quot;presentation&quot;&gt;&lt;span dir=&quot;ltr&quot; role=&quot;presentation&quot; style=&quot;left: calc(var(--scale-factor)*56.64px); top: calc(var(--scale-factor)*554.13px); font-size: calc(var(--scale-factor)*11.04px); font-family: sans-serif; transform: scaleX(0.912874);&quot;&gt;Aclaraciones:&lt;/span&gt;&lt;/span&gt;&lt;span id=&quot;page45R_mcid20&quot; class=&quot;markedContent&quot;&gt;&lt;br role=&quot;presentation&quot;&gt;&lt;span dir=&quot;ltr&quot; role=&quot;presentation&quot; style=&quot;left: calc(var(--scale-factor)*56.64px); top: calc(var(--scale-factor)*572.73px); font-size: calc(var(--scale-factor)*11.04px); font-family: sans-serif; transform: scaleX(0.937125);&quot;&gt;1)&lt;/span&gt;&lt;span dir=&quot;ltr&quot; role=&quot;presentation&quot; style=&quot;left: calc(var(--scale-factor)*65.84px); top: calc(var(--scale-factor)*572.73px); font-size: calc(var(--scale-factor)*11.04px); font-family: sans-serif;&quot;&gt; &lt;/span&gt;&lt;span dir=&quot;ltr&quot; role=&quot;presentation&quot; style=&quot;left: calc(var(--scale-factor)*74.66px); top: calc(var(--scale-factor)*572.73px); font-size: calc(var(--scale-factor)*11.04px); font-family: sans-serif; transform: scaleX(0.889172);&quot;&gt;Un empleado pertenece a una sola oficina.&lt;/span&gt;&lt;/span&gt;&lt;span id=&quot;page45R_mcid21&quot; class=&quot;markedContent&quot;&gt;&lt;br role=&quot;presentation&quot;&gt;&lt;span dir=&quot;ltr&quot; role=&quot;presentation&quot; style=&quot;left: calc(var(--scale-factor)*56.64px); top: calc(var(--scale-factor)*585.33px); font-size: calc(var(--scale-factor)*11.04px); font-family: sans-serif; transform: scaleX(0.937125);&quot;&gt;2)&lt;/span&gt;&lt;span dir=&quot;ltr&quot; role=&quot;presentation&quot; style=&quot;left: calc(var(--scale-factor)*65.84px); top: calc(var(--scale-factor)*585.33px); font-size: calc(var(--scale-factor)*11.04px); font-family: sans-serif;&quot;&gt; &lt;/span&gt;&lt;span dir=&quot;ltr&quot; role=&quot;presentation&quot; style=&quot;left: calc(var(--scale-factor)*74.66px); top: calc(var(--scale-factor)*585.33px); font-size: calc(var(--scale-factor)*11.04px); font-family: sans-serif; transform: scaleX(0.89896);&quot;&gt;Un jefe tiene a su cargo una sola oficina.&lt;/span&gt;&lt;/span&gt;&lt;span id=&quot;page45R_mcid22&quot; class=&quot;markedContent&quot;&gt;&lt;br role=&quot;presentation&quot;&gt;&lt;span dir=&quot;ltr&quot; role=&quot;presentation&quot; style=&quot;left: calc(var(--scale-factor)*56.64px); top: calc(var(--scale-factor)*598.05px); font-size: calc(var(--scale-factor)*11.04px); font-family: sans-serif; transform: scaleX(0.937125);&quot;&gt;3)&lt;/span&gt;&lt;span dir=&quot;ltr&quot; role=&quot;presentation&quot; style=&quot;left: calc(var(--scale-factor)*65.84px); top: calc(var(--scale-factor)*598.05px); font-size: calc(var(--scale-factor)*11.04px); font-family: sans-serif;&quot;&gt; &lt;/span&gt;&lt;span dir=&quot;ltr&quot; role=&quot;presentation&quot; style=&quot;left: calc(var(--scale-factor)*74.66px); top: calc(var(--scale-factor)*598.05px); font-size: calc(var(--scale-factor)*11.04px); font-family: sans-serif; transform: scaleX(0.920554);&quot;&gt;Los emple&lt;/span&gt;&lt;span dir=&quot;ltr&quot; role=&quot;presentation&quot; style=&quot;left: calc(var(--scale-factor)*121.58px); top: calc(var(--scale-factor)*598.05px); font-size: calc(var(--scale-factor)*11.04px); font-family: sans-serif; transform: scaleX(0.902962);&quot;&gt;ados pueden usar más de una computadora y una computadora puede ser utilizada por varios&lt;/span&gt;&lt;br role=&quot;presentation&quot;&gt;&lt;span dir=&quot;ltr&quot; role=&quot;presentation&quot; style=&quot;left: calc(var(--scale-factor)*74.66px); top: calc(var(--scale-factor)*610.65px); font-size: calc(var(--scale-factor)*11.04px); font-family: sans-serif; transform: scaleX(0.873941);&quot;&gt;empleados.&lt;/span&gt;&lt;/span&gt;&lt;span id=&quot;page45R_mcid23&quot; class=&quot;markedContent&quot;&gt;&lt;br role=&quot;presentation&quot;&gt;&lt;span dir=&quot;ltr&quot; role=&quot;presentation&quot; style=&quot;left: calc(var(--scale-factor)*56.64px); top: calc(var(--scale-factor)*623.37px); font-size: calc(var(--scale-factor)*11.04px); font-family: sans-serif; transform: scaleX(0.937125);&quot;&gt;4)&lt;/span&gt;&lt;span dir=&quot;ltr&quot; role=&quot;presentation&quot; style=&quot;left: calc(var(--scale-factor)*65.84px); top: calc(var(--scale-factor)*623.37px); font-size: calc(var(--scale-factor)*11.04px); font-family: sans-serif;&quot;&gt; &lt;/span&gt;&lt;span dir=&quot;ltr&quot; role=&quot;presentation&quot; style=&quot;left: calc(var(--scale-factor)*74.66px); top: calc(var(--scale-factor)*623.37px); font-size: calc(var(--scale-factor)*11.04px); font-family: sans-serif; transform: scaleX(0.887638);&quot;&gt;Una computadora tiene más de un software y un software puede estar instalado en varias computadoras.&lt;/span&gt;&lt;/span&gt;&lt;span id=&quot;page45R_mcid24&quot; class=&quot;markedContent&quot;&gt;&lt;br role=&quot;presentation&quot;&gt;&lt;span dir=&quot;ltr&quot; role=&quot;presentation&quot; style=&quot;left: calc(var(--scale-factor)*56.64px); top: calc(var(--scale-factor)*635.97px); font-size: calc(var(--scale-factor)*11.04px); font-family: sans-serif; transform: scaleX(0.937125);&quot;&gt;5)&lt;/span&gt;&lt;span dir=&quot;ltr&quot; role=&quot;presentation&quot; style=&quot;left: calc(var(--scale-factor)*65.84px); top: calc(var(--scale-factor)*635.97px); font-size: calc(var(--scale-factor)*11.04px); font-family: sans-serif;&quot;&gt; &lt;/span&gt;&lt;span dir=&quot;ltr&quot; role=&quot;presentation&quot; style=&quot;left: calc(var(--scale-factor)*74.66px); top: calc(var(--scale-factor)*635.97px); font-size: calc(var(--scale-factor)*11.04px); font-family: sans-serif; transform: scaleX(0.882978);&quot;&gt;Si un software está instalado en más de una computadora&lt;/span&gt;&lt;span dir=&quot;ltr&quot; role=&quot;presentation&quot; style=&quot;left: calc(var(--scale-factor)*326.09px); top: calc(var(--scale-factor)*635.97px); font-size: calc(var(--scale-factor)*11.04px); font-family: sans-serif;&quot;&gt; &lt;/span&gt;&lt;span dir=&quot;ltr&quot; role=&quot;presentation&quot; style=&quot;left: calc(var(--scale-factor)*328.97px); top: calc(var(--scale-factor)*635.97px); font-size: calc(var(--scale-factor)*11.04px); font-family: sans-serif; transform: scaleX(0.885029);&quot;&gt;posee diferentes números de licencia.&lt;/span&gt;&lt;/span&gt;&lt;/p&gt;" style="text;html=1;strokeColor=none;fillColor=none;spacing=5;spacingTop=-20;whiteSpace=wrap;overflow=hidden;rounded=0;" vertex="1" parent="1">
          <mxGeometry x="-790" y="30" width="550" height="520" as="geometry" />
        </mxCell>
      </root>
    </mxGraphModel>
  </diagram>
</mxfile>
